<?xml version="1.0" encoding="UTF-8" standalone="no"?>
<!-- Created with Inkscape (http://www.inkscape.org/) -->

<svg
   width="180"
   height="180"
   viewBox="0 0 180 180"
   version="1.1"
   id="svg5"
   sodipodi:docname="favicon.svg"
   inkscape:version="1.1.2 (0a00cf5339, 2022-02-04, custom)"
   xmlns:inkscape="http://www.inkscape.org/namespaces/inkscape"
   xmlns:sodipodi="http://sodipodi.sourceforge.net/DTD/sodipodi-0.dtd"
   xmlns="http://www.w3.org/2000/svg"
   xmlns:svg="http://www.w3.org/2000/svg">
  <sodipodi:namedview
     id="namedview7"
     pagecolor="#505050"
     bordercolor="#eeeeee"
     borderopacity="1"
     inkscape:pageshadow="0"
     inkscape:pageopacity="0"
     inkscape:pagecheckerboard="0"
     inkscape:document-units="px"
     showgrid="false"
     inkscape:zoom="4.85"
     inkscape:cx="90"
     inkscape:cy="31.340206"
     inkscape:window-width="3840"
     inkscape:window-height="2080"
     inkscape:window-x="-11"
     inkscape:window-y="-11"
     inkscape:window-maximized="1"
     inkscape:current-layer="layer1" />
  <defs
     id="defs2" />
  <g
     inkscape:label="Ebene 1"
     inkscape:groupmode="layer"
     id="layer1">
    <g
       id="g11055"
       transform="matrix(1.1183992,0,0,1.2291973,-10.194728,-18.933811)">
      <g
         aria-label="PW"
         transform="scale(0.97654142,1.0240221)"
         id="text2444-0"
         style="font-size:97.0183px;line-height:1.45;fill:#0000ff;stroke-width:1.0106">
        <path
           d="m 48.897327,100.97037 v 18.71202 q 0,6.06365 1.326422,7.53219 1.800145,2.08438 5.447805,2.08438 h 2.463356 v 1.75277 H 30.611651 v -1.75277 h 2.415983 q 4.074011,0 5.826783,-2.65285 0.947444,-1.46854 0.947444,-6.96372 V 78.184332 q 0,-6.063644 -1.27905,-7.532183 -1.847516,-2.084378 -5.495177,-2.084378 h -2.415983 v -1.752772 h 23.543993 q 8.621743,0 13.595826,1.800145 4.974083,1.752772 8.384883,5.968899 3.410799,4.216128 3.410799,9.995538 0,7.863788 -5.210944,12.790499 -5.163571,4.92671 -14.638015,4.92671 -2.321239,0 -5.021455,-0.3316 -2.700217,-0.33161 -5.779411,-0.99482 z m 0,-2.700218 q 2.510728,0.473722 4.452989,0.710584 1.942261,0.236861 3.316055,0.236861 4.926711,0 8.479627,-3.789778 3.600289,-3.837149 3.600289,-9.900793 0,-4.168756 -1.7054,-7.721672 -1.7054,-3.600289 -4.831966,-5.353061 -3.126567,-1.800144 -7.105833,-1.800144 -2.415983,0 -6.205761,0.900072 z"
           style="font-family:'Times New Roman';-inkscape-font-specification:'Times New Roman, '"
           id="path10830" />
        <path
           d="m 173.77049,66.814999 v 1.752772 q -2.51072,0 -4.07401,0.900073 -1.56328,0.900072 -2.98445,3.363427 -0.94744,1.658028 -2.98445,7.911161 l -17.9067,51.777838 H 143.926 L 129.28798,91.448553 114.74471,132.52027 h -1.7054 L 93.948305,79.179148 Q 91.816555,73.210249 91.248089,72.120688 90.300644,70.320544 88.642617,69.467844 87.031961,68.567771 84.237,68.567771 v -1.752772 h 23.78085 v 1.752772 h -1.13693 q -2.51073,0 -3.83715,1.136934 -1.32642,1.136933 -1.32642,2.747588 0,1.658028 2.08438,7.626927 l 12.64838,36.05026 10.65875,-30.649827 -1.89489,-5.400433 -1.51591,-4.310871 q -0.99482,-2.368611 -2.2265,-4.168756 -0.61583,-0.900072 -1.51591,-1.515911 -1.1843,-0.852699 -2.36861,-1.231677 -0.90007,-0.284234 -2.84233,-0.284234 v -1.752772 h 25.01253 v 1.752772 h -1.7054 q -2.65284,0 -3.88452,1.136934 -1.23168,1.136933 -1.23168,3.079194 0,2.415983 2.13175,8.432255 l 12.31678,34.913326 12.22203,-35.387048 q 2.08438,-5.874156 2.08438,-8.148022 0,-1.089561 -0.71059,-2.037005 -0.66321,-0.947445 -1.7054,-1.326422 -1.80014,-0.663212 -4.68985,-0.663212 v -1.752772 z"
           style="font-family:'Times New Roman';-inkscape-font-specification:'Times New Roman, '"
           id="path10832" />
      </g>
      <g
         aria-label="PW"
         transform="scale(0.97654142,1.0240221)"
         id="text2444-0-6"
         style="font-size:97.0183px;line-height:1.45;fill:#ff0000;stroke-width:1.0106">
        <path
           d="M 27.994608,80.432794 V 99.14482 q 0,6.06364 1.326422,7.53218 1.800144,2.08438 5.447805,2.08438 h 2.463355 v 1.75277 H 9.7089316 v -1.75277 h 2.4159834 q 4.07401,0 5.826783,-2.65284 0.947444,-1.46854 0.947444,-6.96372 V 57.646757 q 0,-6.063644 -1.27905,-7.532183 -1.847517,-2.084377 -5.495177,-2.084377 H 9.7089316 V 46.277425 H 33.252924 q 8.621744,0 13.595827,1.800144 4.974083,1.752772 8.384882,5.968899 3.4108,4.216128 3.4108,9.995538 0,7.863789 -5.210944,12.790499 -5.163572,4.926711 -14.638015,4.926711 -2.321239,0 -5.021456,-0.331605 -2.700216,-0.331606 -5.77941,-0.994817 z m 0,-2.700216 q 2.510727,0.473722 4.452988,0.710583 1.942261,0.236861 3.316056,0.236861 4.92671,0 8.479627,-3.789778 3.600288,-3.837149 3.600288,-9.900793 0,-4.168755 -1.7054,-7.721672 -1.705399,-3.600288 -4.831966,-5.35306 -3.126566,-1.800145 -7.105833,-1.800145 -2.415983,0 -6.20576,0.900072 z"
           style="font-family:'Times New Roman';-inkscape-font-specification:'Times New Roman, '"
           id="path10807" />
        <path
           d="m 152.86777,46.277425 v 1.752772 q -2.51072,0 -4.07401,0.900072 -1.56328,0.900072 -2.98445,3.363427 -0.94744,1.658028 -2.98445,7.911161 l -17.9067,51.777833 h -1.89488 L 108.38526,70.910978 93.84199,111.98269 h -1.7054 L 73.045586,58.641574 q -2.13175,-5.9689 -2.700217,-7.058461 -0.947444,-1.800144 -2.605472,-2.652844 -1.610655,-0.900072 -4.405616,-0.900072 v -1.752772 h 23.780854 v 1.752772 h -1.136934 q -2.510727,0 -3.837149,1.136933 -1.326422,1.136933 -1.326422,2.747589 0,1.658027 2.084377,7.626927 l 12.648382,36.050258 10.658751,-30.649825 -1.89489,-5.400433 -1.51591,-4.310872 q -0.99482,-2.368611 -2.2265,-4.168755 -0.615834,-0.900072 -1.515906,-1.515911 -1.184306,-0.8527 -2.368611,-1.231678 -0.900073,-0.284233 -2.842333,-0.284233 v -1.752772 h 25.01253 v 1.752772 h -1.7054 q -2.65284,0 -3.88452,1.136933 -1.23168,1.136933 -1.23168,3.079194 0,2.415983 2.13175,8.432255 l 12.31678,34.913325 12.22203,-35.387047 q 2.08438,-5.874155 2.08438,-8.148022 0,-1.089561 -0.71059,-2.037005 -0.66321,-0.947445 -1.7054,-1.326422 -1.80014,-0.663211 -4.68984,-0.663211 v -1.752772 z"
           style="font-family:'Times New Roman';-inkscape-font-specification:'Times New Roman, '"
           id="path10809" />
      </g>
    </g>
  </g>
</svg>
